<?xml version="1.0" encoding="utf-8"?>
<svg id="master-artboard" viewBox="0 0 224.51956176757812 226.85447692871094" version="1.1"
     xmlns="http://www.w3.org/2000/svg" x="0px" y="0px" style="enable-background:new 0 0 1400 980;"
     width="224.51956176757812px" height="226.85447692871094px">
    <rect id="ee-background" x="0" y="0" width="224.51956176757812" height="226.85447692871094"
          style="fill: white; fill-opacity: 0; pointer-events: none;"/>


    <g transform="matrix(1, 0, 0, 1, -729.98876953125, -378.2268581390381)">


        <path id="color_5_" class="st4"
              d="M 842.5 381.4 C 841.8336791992188 381.3999938964844 821.48138294328 381.33657755370456 798.8837890625 390.6650390625 C 781.261474609375 397.9396667480469 763.9645385742188 413.2843017578125 756.7066040039062 423.1827087402344 C 755.6657933388947 424.60217133958304 790.049072265625 452.7016906738281 790.0859985351562 452.84039306640625 C 790.3051180653824 453.6628252159256 790.9579611755273 450.51460141262623 794.5115356445312 450.76263427734375 C 797.4020385742188 450.9643859863281 888.4164012539977 451.07865343641254 890.5552368164062 450.9242858886719 C 894.2474365234375 450.6578063964844 896.0474243164062 453.6901550292969 895.3605346679688 452.1344909667969 C 895.18203148074 451.73021788735065 843.3577270507812 496.6897888183594 842.80224609375 497.87677001953125 C 842.2467651367188 499.0637512207031 756.8939208984375 423.2585754394531 756.8939208984375 423.2585754394531 C 756.682373046875 423.5289611816406 779.9400979953115 452.23984049296206 780.8505859375 453.4029235839844 C 781.3551635742188 454.0474853515625 787.4473876953125 457.3509521484375 787.5376586914062 457.56097412109375 C 788.0667305928888 458.7922718859074 825.1189575195312 489.8569030761719 825.1666870117188 490.3017578125 C 825.2868041992188 491.4211730957031 787.7655461336934 522.8935568857987 787.5320434570312 523.1618041992188 C 787.4996948242188 523.198974609375 787.5889091349981 450.4376356521912 787.6111450195312 449.5805969238281 C 787.6572265625 447.8044738769531 767.2110185754123 411.7057453388894 756.1802978515625 423.97357177734375 C 754.6026000976562 425.7282409667969 749.4794311523438 433.89898681640625 747.2280883789062 437.94659423828125 C 742.5460205078125 446.36419677734375 740.309326171875 453.0198059082031 738.2704467773438 459.73089599609375 C 733.6060180664062 475.08416748046875 733.9000244140625 489.517822265625 733.9000244140625 490 C 733.9000244140625 491.341064453125 733.92431640625 492.67645263671875 733.9724731445312 494.0057373046875 C 734.4934692382812 508.3919372558594 737.8897283604639 521.9363104237666 743.6885986328125 534.5028076171875 C 748.24560546875 544.3781127929688 751.392578125 549.1414184570312 756.12255859375 555.4696655273438 C 756.3776245117188 555.8109130859375 818.3204956054688 502.7275390625 827.889404296875 495.002685546875 C 828.6704711914062 494.3721618652344 829.1025390625 494.0438232421875 829.1237182617188 494.0714111328125 C 829.1616821289062 494.120849609375 842.962762062484 505.96686488074226 843.1292724609375 506.08526611328125 C 843.2025756835938 506.13739013671875 856.2423571533193 493.8099945493462 856.2896728515625 493.9270324707031 C 856.3265991210938 494.01837158203125 895.1859130859375 527.7510375976562 895.104248046875 527.6361694335938 C 894.9017833606019 527.3513872665042 894.671142578125 529.2846069335938 889.9481811523438 529.2677001953125 C 889.9255864153074 529.2676193131559 794.9118653131274 529.1573223664587 794.0130004882812 529.1565551757812 C 792.654296875 529.1553955078125 790.9073486328125 528.5630493164062 789.8070678710938 526.9059448242188 C 788.7085518591099 525.2514981761153 755.9533081054688 555.4267578125 756.0834350585938 555.59228515625 C 761.5829467773438 562.5853881835938 768.2320330067957 569.0655023180046 775.1510620117188 574.9737548828125 C 780.6611328125 579.6788940429688 789.5948653118427 585.3251611712074 799.7548217773438 589.5889282226562 C 812.8012084960938 595.0640258789062 826.0147094726562 598.1294555664062 838.9609375 598.54345703125 C 840.135986328125 598.5810546875 841.3157958984375 598.5999755859375 842.5 598.5999755859375 C 843.5750122070312 598.5999755859375 844.6463623046875 598.5843505859375 845.7138671875 598.5534057617188 C 861.5997314453125 598.0922241210938 881.7738572508549 592.4951566193647 897.1565551757812 583.4688720703125 C 911.2222503856896 575.215392804374 916.398967192964 568.9239211804849 919.9668579101562 565.6452026367188 C 926.8009643554688 559.364990234375 930.5739135742188 553.151611328125 930.4166870117188 552.8822021484375 C 930.4166870117188 552.8822021484375 914.3043212890625 537.3155517578125 897.4241943359375 522.6254272460938 C 878.7614135742188 506.3840026855469 859.16015625 490.86016845703125 859.3580932617188 490.7908020019531 C 859.4229125976562 490.76806640625 897.5492553710938 457.7535705566406 897.5844116210938 458.16143798828125 C 897.5952613610297 458.2873119242569 897.6236572265625 522.6248779296875 897.431884765625 522.330810546875 C 897.3779296875 522.248046875 900.6167762067895 535.760105172597 901.2158813476562 536.2608032226562 C 901.532470703125 536.525390625 922.2228393554688 551.5203247070312 927.1550903320312 555.42626953125 C 928.804443359375 556.7323608398438 926.5681973293747 558.9386012725735 932.2949829101562 550.5188598632812 C 938.3643798828125 541.5953979492188 933.6217998702592 549.1535532883955 937.6170043945312 541.7763061523438 C 939.4048461914062 538.4750366210938 941.9767456054688 533.4071655273438 944.111572265625 527.29736328125 C 947.7084350585938 517.0030517578125 950.6774291992188 504.057373046875 951.0328979492188 493.85467529296875 C 951.0775146484375 492.5753173828125 951.0999755859375 491.290283203125 951.0999755859375 490 C 951.1019897460938 488.8031311035156 951.0845336914062 487.61077880859375 951.0480346679688 486.42327880859375 C 949.2944946289062 429.4426574707031 903.51708984375 383.58624267578125 846.6007690429688 381.47589111328125 C 845.2400512695312 381.4254455566406 843.8729858398438 381.3999938964844 842.5 381.3999938964844 L 842.5 381.4 Z"
              style="fill: rgb(255, 255, 255);"/>


        <g>


        </g>


        <path d="M 401.2323913574219 135.48106384277344"
              style="fill: rgb(79, 193, 233); fill-opacity: 1; stroke: rgb(0, 0, 0); stroke-opacity: 1; stroke-width: 0; paint-order: stroke;"/>
        <path style="fill: rgb(79, 193, 233); fill-opacity: 1; stroke: rgb(0, 0, 0); stroke-opacity: 1; stroke-width: 0; paint-order: fill;"/>
        <path style="fill: rgb(79, 193, 233); fill-opacity: 1; stroke: rgb(0, 0, 0); stroke-opacity: 1; stroke-width: 0; paint-order: fill;"/>
        <path style="fill: rgb(79, 193, 233); fill-opacity: 1; stroke: rgb(0, 0, 0); stroke-opacity: 1; stroke-width: 0; paint-order: fill;"/>
        <path style="fill: rgb(79, 193, 233); fill-opacity: 1; stroke: rgb(0, 0, 0); stroke-opacity: 1; stroke-width: 0; paint-order: fill;"/>
        <path style="fill: rgb(79, 193, 233); fill-opacity: 1; stroke: rgb(0, 0, 0); stroke-opacity: 1; stroke-width: 0; paint-order: fill;"/>
        <path style="fill: rgb(79, 193, 233); fill-opacity: 1; stroke: rgb(0, 0, 0); stroke-opacity: 1; stroke-width: 0; paint-order: fill;"/>
        <path style="fill: rgb(79, 193, 233); fill-opacity: 1; stroke: rgb(0, 0, 0); stroke-opacity: 1; stroke-width: 0; paint-order: fill;"/>
        <path style="fill: rgb(79, 193, 233); fill-opacity: 1; stroke: rgb(0, 0, 0); stroke-opacity: 1; stroke-width: 0; paint-order: fill;"/>
        <path style="fill: rgb(79, 193, 233); fill-opacity: 1; stroke: rgb(0, 0, 0); stroke-opacity: 1; stroke-width: 0; paint-order: fill;"/>
        <path style="fill: rgb(79, 193, 233); fill-opacity: 1; stroke: rgb(0, 0, 0); stroke-opacity: 1; stroke-width: 0; paint-order: fill;"/>
        <path style="fill: rgb(79, 193, 233); fill-opacity: 1; stroke: rgb(0, 0, 0); stroke-opacity: 1; stroke-width: 0; paint-order: fill;"/>
        <path d="M 898.3026123046875 386.9046630859375"
              style="fill: rgb(79, 193, 233); fill-opacity: 1; stroke: rgb(0, 0, 0); stroke-opacity: 1; stroke-width: 0; paint-order: fill;"/>
        <path d="M 797.0167846679688 477.0257873535156"
              style="fill: rgb(79, 193, 233); fill-opacity: 1; stroke: rgb(0, 0, 0); stroke-opacity: 1; stroke-width: 0; paint-order: fill;"/>
        <path style="fill: rgb(79, 193, 233); fill-opacity: 1; stroke: rgb(0, 0, 0); stroke-opacity: 1; stroke-width: 0; paint-order: fill;"/>
        <path style="fill: rgb(79, 193, 233); fill-opacity: 1; stroke: rgb(0, 0, 0); stroke-opacity: 1; stroke-width: 0; paint-order: fill;"/>
        <path d="M 938.6834716796875 468.359130859375 L 974.1834716796875 443.359130859375"
              style="fill: rgb(79, 193, 233); fill-opacity: 1; stroke: rgb(0, 0, 0); stroke-opacity: 1; stroke-width: 0; paint-order: fill;"/>
        <path style="fill: rgb(79, 193, 233); fill-opacity: 1; stroke: rgb(0, 0, 0); stroke-opacity: 1; stroke-width: 0; paint-order: fill;"/>
        <path style="fill: rgb(79, 193, 233); fill-opacity: 1; stroke: rgb(0, 0, 0); stroke-opacity: 1; stroke-width: 0; paint-order: fill;"/>
        <path style="fill: rgb(79, 193, 233); fill-opacity: 1; stroke: rgb(0, 0, 0); stroke-opacity: 1; stroke-width: 0; paint-order: fill;"/>
        <path style="fill: rgb(79, 193, 233); fill-opacity: 1; stroke: rgb(0, 0, 0); stroke-opacity: 1; stroke-width: 0; paint-order: fill;"/>
        <path style="fill: rgb(79, 193, 233); fill-opacity: 1; stroke: rgb(0, 0, 0); stroke-opacity: 1; stroke-width: 0; paint-order: fill;"/>
        <path style="fill: rgb(79, 193, 233); fill-opacity: 1; stroke: rgb(0, 0, 0); stroke-opacity: 1; stroke-width: 0; paint-order: fill;"/>
        <path d="M 893.5167846679688 603.5257568359375"
              style="fill: rgb(79, 193, 233); fill-opacity: 1; stroke: rgb(0, 0, 0); stroke-opacity: 1; stroke-width: 0; paint-order: fill;"/>
        <path d="M 855.5167846679688 518.1924438476562"
              style="fill: rgb(79, 193, 233); fill-opacity: 1; stroke: rgb(0, 0, 0); stroke-opacity: 1; stroke-width: 0; paint-order: fill;"/>
        <path d="M 965.0167846679688 521.5257568359375"
              style="fill: rgb(79, 193, 233); fill-opacity: 1; stroke: rgb(0, 0, 0); stroke-opacity: 1; stroke-width: 0; paint-order: fill;"/>
        <path d="M 799.0167846679688 534.0257568359375"
              style="fill: rgb(79, 193, 233); fill-opacity: 1; stroke: rgb(0, 0, 0); stroke-opacity: 1; stroke-width: 0; paint-order: fill;"/>
        <path d="M 805.6834716796875 535.5257568359375"
              style="fill: rgb(79, 193, 233); fill-opacity: 1; stroke: rgb(0, 0, 0); stroke-opacity: 1; stroke-width: 0; paint-order: fill;"/>
        <path d="M 806.6834716796875 535.1924438476562"
              style="fill: rgb(79, 193, 233); fill-opacity: 1; stroke: rgb(0, 0, 0); stroke-opacity: 1; stroke-width: 0; paint-order: fill;"/>
        <path d="M 914.3501586914062 505.5257873535156"
              style="fill: rgb(79, 193, 233); fill-opacity: 1; stroke: rgb(0, 0, 0); stroke-opacity: 1; stroke-width: 0; paint-order: fill;"/>
        <path d="M 917.8501586914062 495.359130859375"
              style="fill: rgb(79, 193, 233); fill-opacity: 1; stroke: rgb(0, 0, 0); stroke-opacity: 1; stroke-width: 0; paint-order: fill;"/>
        <path d="M 900.0167846679688 503.5257873535156"
              style="fill: rgb(79, 193, 233); fill-opacity: 1; stroke: rgb(0, 0, 0); stroke-opacity: 1; stroke-width: 0; paint-order: fill;"/>
        <path d="M 900.6834716796875 531.5257568359375"
              style="fill: rgb(79, 193, 233); fill-opacity: 1; stroke: rgb(0, 0, 0); stroke-opacity: 1; stroke-width: 0; paint-order: fill;"/>
        <path d="M 964.6834716796875 515.359130859375"
              style="fill: rgb(79, 193, 233); fill-opacity: 1; stroke: rgb(0, 0, 0); stroke-opacity: 1; stroke-width: 0; paint-order: fill;"/>
        <path d="M 947.6834716796875 456.859130859375"
              style="fill: rgb(79, 193, 233); fill-opacity: 1; stroke: rgb(0, 0, 0); stroke-opacity: 1; stroke-width: 0; paint-order: fill;"/>
        <path d="M 970.3501586914062 462.19244384765625"
              style="fill: rgb(79, 193, 233); fill-opacity: 1; stroke: rgb(0, 0, 0); stroke-opacity: 1; stroke-width: 0; paint-order: fill;"/>
        <path style="fill: rgb(79, 193, 233); fill-opacity: 1; stroke: rgb(0, 0, 0); stroke-opacity: 1; stroke-width: 0; paint-order: fill;"/>
        <path style="fill: rgb(79, 193, 233); fill-opacity: 1; stroke: rgb(0, 0, 0); stroke-opacity: 1; stroke-width: 0; paint-order: fill;"/>
        <path style="fill: rgb(79, 193, 233); fill-opacity: 1; stroke: rgb(0, 0, 0); stroke-opacity: 1; stroke-width: 0; paint-order: fill;"/>
        <path d="M 950.201416015625 526.1637573242188"
              style="fill: rgb(79, 193, 233); fill-opacity: 1; stroke: rgb(0, 0, 0); stroke-opacity: 1; stroke-width: 0; paint-order: fill;"/>
    </g>
</svg>