<?xml version="1.0" encoding="utf-8"?>
<svg id="master-artboard" viewBox="0 0 224.51956176757812 226.85447692871094" version="1.1"
     xmlns="http://www.w3.org/2000/svg" x="0px" y="0px" style="enable-background:new 0 0 1400 980;"
     width="224.51956176757812px" height="226.85447692871094px">
    <rect id="ee-background" x="0" y="0" width="224.51956176757812" height="226.85447692871094"
          style="fill: white; fill-opacity: 0; pointer-events: none;"/>


    <g transform="matrix(1, 0, 0, 1, -729.98876953125, -378.2268581390381)">


        <path id="color_5_" class="st4"
              d="M842.5,381.4c-60,0-108.6,48.6-108.6,108.6c0,60,48.6,108.6,108.6,108.6&#10;&#9;&#9;c60,0,108.6-48.6,108.6-108.6C951.2,430,902.5,381.4,842.5,381.4z"
              style="fill: rgb(137, 143, 156);"/>


        <g>
            <path class="st6"
                  d="M842.5,505.7L829,493.8l-38.8,33.2c1.4,1.3,3.3,2.1,5.4,2.1h93.9c2.1,0,4-0.8,5.4-2.1l-38.7-33.2L842.5,505.7&#10;&#9;&#9;&#9;z"
                  style="fill: rgb(255, 255, 255);"/>
            <path class="st6"
                  d="M894.9,452.9c-1.4-1.3-3.3-2.1-5.4-2.1h-93.9c-2.1,0-4,0.8-5.4,2.2l52.3,44.9L894.9,452.9z"
                  style="fill: rgb(255, 255, 255);"/>
            <path d="M 787.7000122070312 457.70001220703125 L 787.7000122070312 522.7999877929688 L 825.5999755859375 490.6000061035156 Z"
                  class="st6" style="fill: rgb(255, 255, 255);"/>
            <path d="M 859.5 490.6000061035156 L 897.4000244140625 522.7999877929688 L 897.4000244140625 457.70001220703125 Z"
                  class="st6" style="fill: rgb(255, 255, 255);"/>
        </g>


        <path d="M 401.2323913574219 135.48106384277344"
              style="fill: rgb(79, 193, 233); fill-opacity: 1; stroke: rgb(0, 0, 0); stroke-opacity: 1; stroke-width: 0; paint-order: stroke;"/>
        <path d="M 1304.34521484375 351.61065673828125"
              style="fill: rgb(79, 193, 233); fill-opacity: 1; stroke: rgb(0, 0, 0); stroke-opacity: 1; stroke-width: 0; paint-order: fill;"/>
        <path d="M 1401.383056640625 474.0105895996094"
              style="fill: rgb(137, 143, 156); fill-opacity: 1; stroke: rgb(0, 0, 0); stroke-opacity: 1; stroke-width: 0; paint-order: fill;"/>
    </g>
</svg>