<svg id="Layer_1" data-name="Layer 1" xmlns="http://www.w3.org/2000/svg" viewBox="0 0 1024 791.27">
    <defs>
        <style>.cls-1{fill:#fff;}.cls-2{fill:#4267b2;}.cls-3{fill:#32363b;}</style>
    </defs>
    <title>Thumb-Icon-RGB-1024</title>
    <path class="cls-1"
          d="M694.39,463.93l-12.68,3.95,8,10.6a27.58,27.58,0,0,1-17.49,43.86l-12.68,2.12,5.93,11.41a27.59,27.59,0,0,1-22.77,40.24l-159.49.07c-.47,0-19.76-.38-33.9-12.41a37.43,37.43,0,0,0-8.85-5.8L437,556.42V409l16.63-14.22,56.13-104a46.25,46.25,0,0,0,6.57-27.55l-4.44-58.37a25.8,25.8,0,0,1,12.75-3.38c24.23,0,45,38.72,45,70.41a87.18,87.18,0,0,1-1,13.14l-9.75,63.2H680.58a30,30,0,0,1,21.06,8.89,26.66,26.66,0,0,1,8,19,27.47,27.47,0,0,1-11,21.83l-11.31,8.58,12.35,7a27.66,27.66,0,0,1-5.33,50.49Z"/>
    <path class="cls-2"
          d="M302.2,380a.61.61,0,0,0-.61.53V597.34a.6.6,0,0,0,.61.52H427.07a.6.6,0,0,0,.61-.52V380.51a.61.61,0,0,0-.61-.53Z"/>
    <path class="cls-3"
          d="M732.48,437.51a46.43,46.43,0,0,0-14-33.13,45.93,45.93,0,0,0,9.86-28.23,45.21,45.21,0,0,0-13.47-32.27,48.78,48.78,0,0,0-34.33-14.42H580.72l6.43-41.66a106.66,106.66,0,0,0,1.21-16c0-41.2-27.82-89.11-63.69-89.11A44.52,44.52,0,0,0,496.21,193l-3.7,3.08,5.21,68.47a27.61,27.61,0,0,1-4,16.59L438.86,382.82l-2.05,1.76a19.24,19.24,0,0,0-19-16.42H311.45a19.23,19.23,0,0,0-19.21,19.21V588a19.23,19.23,0,0,0,19.21,19.21H417.82A19.23,19.23,0,0,0,437,588V577.89l.15.12c19.6,16.67,44.92,16.86,46,16.86h0L643,594.81h.51A46.3,46.3,0,0,0,686,537.67a46.35,46.35,0,0,0,24.38-60.58A46.14,46.14,0,0,0,732.48,437.51ZM418.34,588a.56.56,0,0,1-.52.52H311.45a.55.55,0,0,1-.51-.52V387.37a.55.55,0,0,1,.51-.52H417.82a.56.56,0,0,1,.52.52V588ZM694.39,463.93l-12.68,3.95,8,10.6a27.58,27.58,0,0,1-17.49,43.86l-12.68,2.12,5.93,11.41a27.59,27.59,0,0,1-22.77,40.24l-159.49.07c-.47,0-19.76-.38-33.9-12.41a37.43,37.43,0,0,0-8.85-5.8L437,556.42V409l16.63-14.22,56.13-104a46.25,46.25,0,0,0,6.57-27.55l-4.44-58.37a25.8,25.8,0,0,1,12.75-3.38c24.23,0,45,38.72,45,70.41a87.18,87.18,0,0,1-1,13.14l-9.75,63.2H680.58a30,30,0,0,1,21.06,8.89,26.66,26.66,0,0,1,8,19,27.47,27.47,0,0,1-11,21.83l-11.31,8.58,12.35,7a27.66,27.66,0,0,1-5.33,50.49Z"/>
</svg>